<?xml version="1.0" encoding="utf-8"?>
<!-- Generator: Adobe Illustrator 18.0.0, SVG Export Plug-In . SVG Version: 6.00 Build 0)  -->
<!DOCTYPE svg PUBLIC "-//W3C//DTD SVG 1.1//EN" "http://www.w3.org/Graphics/SVG/1.1/DTD/svg11.dtd">
<svg version="1.1" id="Layer_1" xmlns="http://www.w3.org/2000/svg" xmlns:xlink="http://www.w3.org/1999/xlink" x="0px" y="0px"
	 viewBox="0 0 1328 240" enable-background="new 0 0 1328 240" xml:space="preserve">
<g>
	<path fill="#333333" d="M560.9,8H577V2H350v6h15.7l85.9,232h28.3L560.9,8z M500.9,153.3l-0.3,0.5l0.2,0l0,0l-7.8,22L436.4,8H452
		 M500.9,153.9L500.9,153.9l-0.1-0.1l0-0.1L500.9,153.9L500.9,153.9z M512.9,119l-7.6,21.4L460.9,8h15L512.9,119z M484.9,8h15
		l25.4,76.2l-7.4,21.5L484.9,8z M537.4,49l-7.6,21.8L508.9,8h15L537.4,49z M532.9,8h18.7l-9.6,27.7L532.9,8z"/>
	<path fill="#333333" d="M142.8,176L201.4,8.4h-26.3V2h51.5v6.4h-15.8L129.6,240h-28.3L15.5,8.4H0V2h110.1v6.4H86.2L142.8,176z"/>
	<path fill="#333333" d="M237,2h102.7v6.4h-18.5v221.9h18.5v6.4H237v-6.4h18.5V8.4H237V2z"/>
	<path fill="#333333" d="M673.8,230.3l-24.6-72.4h-66.7l-25.9,72.4h25.3v6.4h-51.5v-6.4h15.8L632,0h27.6l84.9,230.3H760v6.4H649.9
		v-6.4H673.8z M617.2,62.7l-31.6,87.8h60.9L617.2,62.7z"/>
	<path fill="#333333" d="M769.1,2h121.2v7.4h-35.7v219.9h12.1c19.1,0,34.3-5.8,45.6-17.4c11.3-11.6,22.8-29.5,34.5-53.6h7.1
		l-6.4,78.4H769.1v-7.4h19.9V9.4h-19.9V2z"/>
	<path fill="#333333" d="M1203.1,115.3c0,46-13,78.1-39.1,96.2c-24,16.8-57,25.1-99,25.1h-95.3v-6.4H992V8.4h-22.2V2h104
		c43.1,0,75.4,8.8,97,26.3C1192.3,45.9,1203.1,74.9,1203.1,115.3z M1057.6,230.3h12.8c22.7,0,38.9-8,48.7-24
		c9.8-16,14.6-42.7,14.6-80.3v-19.4c0-50.3-9.6-80.6-29-90.8c-9.2-4.9-22.2-7.4-39.1-7.4h-8.1V230.3z"/>
	<path fill="#333333" d="M1225.3,2H1328v6.4h-18.5v221.9h18.5v6.4h-102.7v-6.4h18.5V8.4h-18.5V2z"/>
</g>
</svg>
