<?xml version="1.0" encoding="utf-8"?>
<!-- Generator: Adobe Illustrator 18.0.0, SVG Export Plug-In . SVG Version: 6.00 Build 0)  -->
<!DOCTYPE svg PUBLIC "-//W3C//DTD SVG 1.1//EN" "http://www.w3.org/Graphics/SVG/1.1/DTD/svg11.dtd">
<svg version="1.1" id="Layer_1" xmlns="http://www.w3.org/2000/svg" xmlns:xlink="http://www.w3.org/1999/xlink" x="0px" y="0px"
	 viewBox="0 0 166 30" enable-background="new 0 0 166 30" xml:space="preserve">
<g>
	<path fill="#333333" d="M17.8,22L25.2,1h-3.3V0.3h6.4V1h-2L16.2,30h-3.5L1.9,1H0V0.3h13.8V1h-3L17.8,22z"/>
	<path fill="#333333" d="M29.6,0.3h12.8V1h-2.3v27.7h2.3v0.8H29.6v-0.8h2.3V1h-2.3V0.3z"/>
	<path fill="#333333" d="M61.6,22L68.9,1h-3.3V0.3h6.4V1h-2L60,30h-3.5L45.7,1h-1.9V0.3h13.8V1h-3L61.6,22z"/>
	<path fill="#333333" d="M84.2,28.8l-3.1-9.1h-8.3l-3.2,9.1h3.2v0.8h-6.4v-0.8h2L79,0h3.5l10.6,28.8H95v0.8H81.2v-0.8H84.2z
		 M77.2,7.8l-4,11h7.6L77.2,7.8z"/>
	<path fill="#333333" d="M96.1,0.3h15.2v0.9h-4.5v27.5h1.5c2.4,0,4.3-0.7,5.7-2.2c1.4-1.5,2.9-3.7,4.3-6.7h0.9l-0.8,9.8H96.1v-0.9
		h2.5V1.2h-2.5V0.3z"/>
	<path fill="#333333" d="M150.4,14.4c0,5.8-1.6,9.8-4.9,12c-3,2.1-7.1,3.1-12.4,3.1h-11.9v-0.8h2.8V1h-2.8V0.3h13
		c5.4,0,9.4,1.1,12.1,3.3C149,5.7,150.4,9.4,150.4,14.4z M132.2,28.8h1.6c2.8,0,4.9-1,6.1-3c1.2-2,1.8-5.3,1.8-10v-2.4
		c0-6.3-1.2-10.1-3.6-11.4c-1.2-0.6-2.8-0.9-4.9-0.9h-1V28.8z"/>
	<path fill="#333333" d="M153.2,0.3H166V1h-2.3v27.7h2.3v0.8h-12.8v-0.8h2.3V1h-2.3V0.3z"/>
</g>
</svg>
