<?xml version="1.0" encoding="utf-8"?>
<!-- Generator: Adobe Illustrator 18.0.0, SVG Export Plug-In . SVG Version: 6.00 Build 0)  -->
<!DOCTYPE svg PUBLIC "-//W3C//DTD SVG 1.1//EN" "http://www.w3.org/Graphics/SVG/1.1/DTD/svg11.dtd">
<svg version="1.1" id="Layer_1" xmlns="http://www.w3.org/2000/svg" xmlns:xlink="http://www.w3.org/1999/xlink" x="0px" y="0px"
	 viewBox="0 0 227 240" enable-background="new 0 0 227 240" xml:space="preserve">
<path fill="#333333" d="M210.9,8H227V2H0v6h15.7l85.9,232h28.3L210.9,8z M150.9,153.3l-0.3,0.5l0.2,0l0,0l-7.8,22L86.4,8H102
	 M150.9,153.9L150.9,153.9l-0.1-0.1l0-0.1L150.9,153.9L150.9,153.9z M162.9,119l-7.6,21.4L110.9,8h15L162.9,119z M134.9,8h15
	l25.4,76.2l-7.4,21.5L134.9,8z M187.4,49l-7.6,21.8L158.9,8h15L187.4,49z M182.9,8h18.7l-9.6,27.7L182.9,8z"/>
</svg>
