<?xml version="1.0" encoding="utf-8"?>
<!-- Generator: Adobe Illustrator 18.1.0, SVG Export Plug-In . SVG Version: 6.00 Build 0)  -->
<!DOCTYPE svg PUBLIC "-//W3C//DTD SVG 1.1//EN" "http://www.w3.org/Graphics/SVG/1.1/DTD/svg11.dtd">
<svg version="1.1" id="Layer_1" xmlns="http://www.w3.org/2000/svg" xmlns:xlink="http://www.w3.org/1999/xlink" x="0px" y="0px"
	 viewBox="0 245.7 600 108.5" enable-background="new 0 245.7 600 108.5" xml:space="preserve">
<g>
	<path fill="#FFFFFF" d="M253.4,249.4h7.3v-2.7H158.1v2.7h7.1L204,354.2h12.8L253.4,249.4z M226.3,315l-0.1,0.2h0.1l0,0l-3.5,9.9
		l-25.6-75.8h7 M226.3,315.3L226.3,315.3L226.3,315.3L226.3,315.3L226.3,315.3L226.3,315.3z M231.7,299.5l-3.4,9.7l-20.1-59.8h6.8
		L231.7,299.5z M219.1,249.4h6.8l11.5,34.4l-3.3,9.7L219.1,249.4z M242.8,267.9l-3.4,9.8l-9.4-28.4h6.8L242.8,267.9z M240.8,249.4
		h8.4l-4.3,12.5L240.8,249.4z"/>
	<path fill="#FFFFFF" d="M64.5,325.3L91,249.6H79.1v-2.9h23.3v2.9h-7.1L58.6,354.2H45.8L7,249.6H0v-2.9h49.7v2.9H38.9L64.5,325.3z"
		/>
	<path fill="#FFFFFF" d="M107.1,246.7h46.4v2.9h-8.4v100.3h8.4v2.9h-46.4v-2.9h8.4V249.6h-8.4V246.7z"/>
	<path fill="#FFFFFF" d="M304.4,349.8l-11.1-32.7h-30.1l-11.7,32.7h11.4v2.9h-23.3v-2.9h7.1l38.8-104.1H298l38.4,104.1h7v2.9h-49.7
		v-2.9H304.4z M278.9,274.1l-14.3,39.7h27.5L278.9,274.1z"/>
	<path fill="#FFFFFF" d="M347.5,246.7h54.8v3.3h-16.1v99.4h5.5c8.6,0,15.5-2.6,20.6-7.9c5.1-5.2,10.3-13.3,15.6-24.2h3.2l-2.9,35.4
		h-80.6v-3.3h9V250h-9v-3.3H347.5z"/>
	<path fill="#FFFFFF" d="M543.6,297.9c0,20.8-5.9,35.3-17.7,43.5c-10.8,7.6-25.8,11.3-44.7,11.3h-43.1v-2.9h10.1V249.6h-10v-2.9h47
		c19.5,0,34.1,4,43.8,11.9C538.7,266.5,543.6,279.6,543.6,297.9z M477.8,349.8h5.8c10.3,0,17.6-3.6,22-10.8
		c4.4-7.2,6.6-19.3,6.6-36.3v-8.8c0-22.7-4.3-36.4-13.1-41c-4.2-2.2-10-3.3-17.7-3.3h-3.7L477.8,349.8L477.8,349.8z"/>
	<path fill="#FFFFFF" d="M553.6,246.7H600v2.9h-8.4v100.3h8.4v2.9h-46.4v-2.9h8.4V249.6h-8.4V246.7z"/>
</g>
</svg>
