<?xml version="1.0" encoding="utf-8"?>
<!-- Generator: Adobe Illustrator 18.0.0, SVG Export Plug-In . SVG Version: 6.00 Build 0)  -->
<!DOCTYPE svg PUBLIC "-//W3C//DTD SVG 1.1//EN" "http://www.w3.org/Graphics/SVG/1.1/DTD/svg11.dtd">
<svg version="1.1" id="Layer_1" xmlns="http://www.w3.org/2000/svg" xmlns:xlink="http://www.w3.org/1999/xlink" x="0px" y="0px"
	 viewBox="0 0 240 200" enable-background="new 0 0 240 200" xml:space="preserve">
<path fill="#333333" d="M0,0h147v8H0V0z M171.5,0l32,8H240V0H171.5z M240,192H0v8h240V192z M0,96v8h35v-8H0z M65,104h7.8
	c2.5-2,4.2-5,4.2-8H65V104z M104.2,96c0,1,0.1,1.3,0.1,1.9c0,2-0.2,4.1-0.5,6.1h10.7c4.7-4,10.8-7,17.6-8H104.2z M177,96v8h63v-8
	H177z M0,48v8h35v-8H0z M65,48v8h82v-8H65z M219,48v8h21v-8H219z M113.3,144H50.8l-5.7,1.4L35,147.9V144H0v8h128.1
	C122.4,150,117.3,148,113.3,144z M167.5,144c-4,4-9.2,6-14.9,8H240v-8H167.5z M57,81.5l13-3.3c14.6-3.7,26.4,5.2,26.4,19.8
	S84.3,127.4,69.7,131L43,137.6v-29.7V45l14-6.6V81.5L57,81.5z M71.1,85.1L57,88.8v28.7l14.1-3.6c7.9-2,14.4-10,14.4-17.9
	S79.1,83.1,71.1,85.1z M211,46.5V18.2L155,4v17.5v84.5c-5-1.8-9.3-2.8-14.4-2.8c-15.7,0-28.5,9.5-28.5,21.3s12.8,21.3,28.4,21.3
	s28.4-9.5,28.4-21.3V63.8l42,10.6V60.3L169,50V35.6L211,46.5z"/>
</svg>
